<svg width="235" height="274" viewBox="0 0 235 274" fill="none" xmlns="http://www.w3.org/2000/svg">
<path d="M50.7718 115.534H15.001C15.001 -37.9338 220.395 -39.0877 220.395 115.534H184.047C184.047 115.534 185.778 37.0744 118.275 37.6465C50.7718 38.2185 50.7718 115.534 50.7718 115.534Z" fill="black"/>
<path d="M50.7718 158.084H15.001C15.001 311.552 220.395 312.706 220.395 158.084H184.047C184.047 158.084 185.778 236.543 118.275 235.971C50.7718 235.399 50.7718 158.084 50.7718 158.084Z" fill="black"/>
<path d="M119.589 20.8511H115.4V97.9084H119.589V20.8511Z" fill="#FF6100"/>
<path d="M121.977 18.4624H113V100.297H121.977V18.4624Z" fill="#FF6100"/>
<path d="M200.33 56.0092L197.367 53.0487L142.903 107.559L145.866 110.52L200.33 56.0092Z" fill="#FF6100"/>
<path d="M197.351 49.6707L139.51 107.56L145.861 113.906L203.701 56.0159L197.351 49.6707Z" fill="#FF6100"/>
<path d="M232.591 137.952L232.587 133.763L155.53 133.822L155.533 138.011L232.591 137.952Z" fill="#FF6100"/>
<path d="M234.967 131.406H153.132V140.383H234.967V131.406Z" fill="#FF6100"/>
<path d="M197.49 218.713L200.449 215.748L145.9 161.323L142.941 164.288L197.49 218.713Z" fill="#FF6100"/>
<path d="M145.901 157.947L139.56 164.302L197.491 222.101L203.831 215.746L145.901 157.947Z" fill="#FF6100"/>
<path d="M115.573 251.038L119.762 251.032L119.644 173.975L115.455 173.981L115.573 251.038Z" fill="#FF6100"/>
<path d="M122.041 171.589L113.064 171.603L113.19 253.438L122.167 253.424L122.041 171.589Z" fill="#FF6100"/>
<path d="M34.7819 215.999L37.7495 218.956L92.1366 164.361L89.1689 161.404L34.7819 215.999Z" fill="#FF6100"/>
<path d="M89.1445 158.045L31.3857 216.016L37.7453 222.353L95.504 164.381L89.1445 158.045Z" fill="#FF6100"/>
<path d="M2.39859 134.122L2.4082 138.311L79.4655 138.134L79.4559 133.945L2.39859 134.122Z" fill="#FF6100"/>
<path d="M81.8344 131.544L0 131.729L0.0203128 140.706L81.8548 140.521L81.8344 131.544Z" fill="#FF6100"/>
<path d="M37.3625 53.2978L34.4087 56.2676L89.0423 110.608L91.9962 107.639L37.3625 53.2978Z" fill="#FF6100"/>
<path d="M37.3616 49.911L31.0308 56.2759L89.0514 113.986L95.3822 107.621L37.3616 49.911Z" fill="#FF6100"/>
<path d="M117.246 154.588C127.219 154.588 135.305 146.503 135.305 136.529C135.305 126.556 127.219 118.471 117.246 118.471C107.273 118.471 99.1875 126.556 99.1875 136.529C99.1875 146.503 107.273 154.588 117.246 154.588Z" fill="#FF6100"/>
</svg>
