<svg id="Layer_1" data-name="Layer 1" xmlns="http://www.w3.org/2000/svg" xmlns:xlink="http://www.w3.org/1999/xlink" viewBox="0 0 196 262"><defs><style>.cls-1{fill:none;}.cls-2{clip-path:url(#clip-path);}.cls-3{clip-path:url(#clip-path-2);}.cls-4{clip-path:url(#clip-path-3);}</style><clipPath id="clip-path"><rect class="cls-1" x="3.49" y="7.51" width="189.19" height="104.58"/></clipPath><clipPath id="clip-path-2"><rect class="cls-1" x="3.49" y="150.8" width="189.19" height="104.58"/></clipPath><clipPath id="clip-path-3"><rect class="cls-1" x="-2042.56" y="-658.29" width="768" height="1314.78"/></clipPath></defs><g class="cls-2"><circle cx="20.33" cy="117.73" r="16.49"/><circle cx="20.41" cy="113.16" r="16.49"/><circle cx="20.61" cy="108.71" r="16.49"/><circle cx="20.96" cy="104.37" r="16.49"/><circle cx="21.44" cy="100.14" r="16.49"/><circle cx="22.04" cy="96.03" r="16.49"/><circle cx="22.78" cy="92.03" r="16.49"/><circle cx="23.63" cy="88.15" r="16.49"/><circle cx="24.6" cy="84.38" r="16.49"/><circle cx="25.68" cy="80.72" r="16.49"/><circle cx="26.88" cy="77.18" r="16.49"/><circle cx="28.19" cy="73.76" r="16.49"/><circle cx="29.59" cy="70.44" r="16.49"/><circle cx="31.1" cy="67.24" r="16.49"/><circle cx="32.71" cy="64.16" r="16.49"/><circle cx="34.4" cy="61.19" r="16.49"/><circle cx="36.19" cy="58.33" r="16.49"/><circle cx="38.07" cy="55.59" r="16.49"/><circle cx="40.02" cy="52.97" r="16.49"/><circle cx="42.06" cy="50.45" r="16.49"/><circle cx="44.17" cy="48.05" r="16.49"/><circle cx="46.36" cy="45.77" r="16.49"/><circle cx="48.61" cy="43.6" r="16.49"/><circle cx="50.93" cy="41.54" r="16.49"/><circle cx="53.31" cy="39.6" r="16.49"/><circle cx="55.75" cy="37.77" r="16.49"/><circle cx="58.24" cy="36.06" r="16.49"/><circle cx="60.79" cy="34.46" r="16.49"/><circle cx="63.38" cy="32.98" r="16.49"/><circle cx="66.01" cy="31.61" r="16.49"/><circle cx="68.69" cy="30.35" r="16.49"/><circle cx="71.4" cy="29.21" r="16.49"/><circle cx="74.15" cy="28.18" r="16.49"/><circle cx="76.93" cy="27.27" r="16.49"/><circle cx="79.73" cy="26.47" r="16.49"/><circle cx="82.55" cy="25.78" r="16.49"/><circle cx="85.4" cy="25.21" r="16.49"/><circle cx="88.26" cy="24.75" r="16.49"/><circle cx="91.13" cy="24.41" r="16.49"/><circle cx="94.02" cy="24.18" r="16.49"/><circle cx="96.9" cy="24.07" r="16.49"/><circle cx="99.79" cy="24.07" r="16.49"/><circle cx="102.68" cy="24.18" r="16.49"/><circle cx="105.56" cy="24.41" r="16.49"/><circle cx="108.44" cy="24.75" r="16.49"/><circle cx="111.3" cy="25.21" r="16.49"/><circle cx="114.14" cy="25.78" r="16.49"/><circle cx="116.97" cy="26.47" r="16.49"/><circle cx="119.77" cy="27.27" r="16.49"/><circle cx="122.55" cy="28.18" r="16.49"/><circle cx="125.29" cy="29.21" r="16.49"/><circle cx="128.01" cy="30.35" r="16.49"/><circle cx="130.68" cy="31.61" r="16.49"/><circle cx="133.32" cy="32.98" r="16.49"/><circle cx="135.91" cy="34.46" r="16.49"/><circle cx="138.46" cy="36.06" r="16.49"/><circle cx="140.95" cy="37.77" r="16.49"/><circle cx="143.39" cy="39.6" r="16.49"/><circle cx="145.77" cy="41.54" r="16.49"/><circle cx="148.09" cy="43.6" r="16.49"/><circle cx="150.34" cy="45.77" r="16.49"/><circle cx="152.52" cy="48.05" r="16.49"/><circle cx="154.64" cy="50.45" r="16.49"/><circle cx="156.67" cy="52.97" r="16.49"/><circle cx="158.63" cy="55.59" r="16.49"/><circle cx="160.5" cy="58.33" r="16.49"/><circle cx="162.29" cy="61.19" r="16.49"/><circle cx="163.99" cy="64.16" r="16.49"/><circle cx="165.6" cy="67.24" r="16.49"/><circle cx="167.1" cy="70.44" r="16.49"/><circle cx="168.51" cy="73.76" r="16.49"/><circle cx="169.82" cy="77.18" r="16.49"/><circle cx="171.01" cy="80.72" r="16.49"/><circle cx="172.1" cy="84.38" r="16.49"/><circle cx="173.07" cy="88.15" r="16.49"/><circle cx="173.92" cy="92.03" r="16.49"/><circle cx="174.65" cy="96.03" r="16.49"/><circle cx="175.26" cy="100.14" r="16.49"/><circle cx="175.74" cy="104.37" r="16.49"/><circle cx="176.08" cy="108.71" r="16.49"/><circle cx="176.29" cy="113.16" r="16.49"/><circle cx="176.36" cy="117.73" r="16.49"/></g><g class="cls-3"><circle cx="20.33" cy="145.16" r="16.49"/><circle cx="20.41" cy="149.73" r="16.49"/><circle cx="20.61" cy="154.18" r="16.49"/><circle cx="20.96" cy="158.52" r="16.49"/><circle cx="21.44" cy="162.75" r="16.49"/><circle cx="22.04" cy="166.86" r="16.49"/><circle cx="22.78" cy="170.86" r="16.49"/><circle cx="23.63" cy="174.74" r="16.49"/><circle cx="24.6" cy="178.51" r="16.49"/><circle cx="25.68" cy="182.17" r="16.49"/><circle cx="26.88" cy="185.71" r="16.49"/><circle cx="28.19" cy="189.14" r="16.49"/><circle cx="29.59" cy="192.45" r="16.49"/><circle cx="31.1" cy="195.65" r="16.49"/><circle cx="32.71" cy="198.73" r="16.49"/><circle cx="34.4" cy="201.7" r="16.49"/><circle cx="36.19" cy="204.56" r="16.49"/><circle cx="38.07" cy="207.3" r="16.49"/><circle cx="40.02" cy="209.93" r="16.49"/><circle cx="42.06" cy="212.44" r="16.49"/><circle cx="44.17" cy="214.84" r="16.49"/><circle cx="46.36" cy="217.12" r="16.49"/><circle cx="48.61" cy="219.29" r="16.49"/><circle cx="50.93" cy="221.35" r="16.49"/><circle cx="53.31" cy="223.29" r="16.49"/><circle cx="55.75" cy="225.12" r="16.49"/><circle cx="58.24" cy="226.83" r="16.49"/><circle cx="60.79" cy="228.43" r="16.49"/><circle cx="63.38" cy="229.92" r="16.49"/><circle cx="66.01" cy="231.29" r="16.49"/><circle cx="68.69" cy="232.54" r="16.49"/><circle cx="71.4" cy="233.69" r="16.49"/><circle cx="74.15" cy="234.71" r="16.49"/><circle cx="76.93" cy="235.63" r="16.49"/><circle cx="79.73" cy="236.43" r="16.49"/><circle cx="82.55" cy="237.11" r="16.49"/><circle cx="85.4" cy="237.68" r="16.49"/><circle cx="88.26" cy="238.14" r="16.49"/><circle cx="91.13" cy="238.48" r="16.49"/><circle cx="94.02" cy="238.71" r="16.49"/><circle cx="96.9" cy="238.83" r="16.49"/><circle cx="99.79" cy="238.83" r="16.49"/><circle cx="102.68" cy="238.71" r="16.49"/><circle cx="105.56" cy="238.48" r="16.49"/><circle cx="108.44" cy="238.14" r="16.49"/><circle cx="111.3" cy="237.68" r="16.49"/><circle cx="114.14" cy="237.11" r="16.49"/><circle cx="116.97" cy="236.43" r="16.49"/><circle cx="119.77" cy="235.63" r="16.49"/><circle cx="122.55" cy="234.71" r="16.49"/><circle cx="125.29" cy="233.69" r="16.49"/><circle cx="128.01" cy="232.54" r="16.49"/><circle cx="130.68" cy="231.29" r="16.49"/><circle cx="133.32" cy="229.92" r="16.49"/><circle cx="135.91" cy="228.43" r="16.49"/><circle cx="138.46" cy="226.83" r="16.49"/><circle cx="140.95" cy="225.12" r="16.49"/><circle cx="143.39" cy="223.29" r="16.49"/><circle cx="145.77" cy="221.35" r="16.49"/><circle cx="148.09" cy="219.29" r="16.49"/><circle cx="150.34" cy="217.12" r="16.49"/><circle cx="152.52" cy="214.84" r="16.49"/><circle cx="154.64" cy="212.44" r="16.49"/><circle cx="156.67" cy="209.93" r="16.49"/><circle cx="158.63" cy="207.3" r="16.49"/><circle cx="160.5" cy="204.56" r="16.49"/><circle cx="162.29" cy="201.7" r="16.49"/><circle cx="163.99" cy="198.73" r="16.49"/><circle cx="165.6" cy="195.65" r="16.49"/><circle cx="167.1" cy="192.45" r="16.49"/><circle cx="168.51" cy="189.14" r="16.49"/><circle cx="169.82" cy="185.71" r="16.49"/><circle cx="171.01" cy="182.17" r="16.49"/><circle cx="172.1" cy="178.51" r="16.49"/><circle cx="173.07" cy="174.74" r="16.49"/><circle cx="173.92" cy="170.86" r="16.49"/><circle cx="174.65" cy="166.86" r="16.49"/><circle cx="175.26" cy="162.75" r="16.49"/><circle cx="175.74" cy="158.52" r="16.49"/><circle cx="176.08" cy="154.18" r="16.49"/><circle cx="176.29" cy="149.73" r="16.49"/><circle cx="176.36" cy="145.16" r="16.49"/></g><g class="cls-4"><image width="3840" height="1080" transform="translate(-7915.59 -1450.11) scale(2.17 2.12)" xlink:href="../../../../YandexDisk/%D0%A1%D0%BA%D1%80%D0%B8%D0%BD%D1%88%D0%BE%D1%82%D1%8B/2021-11-16_18-00-37.png"/></g></svg>