<svg id="Layer_1" data-name="Layer 1" xmlns="http://www.w3.org/2000/svg" xmlns:xlink="http://www.w3.org/1999/xlink" viewBox="0 0 196 262"><defs><style>.cls-1{fill:none;}.cls-2{clip-path:url(#clip-path);}.cls-3{clip-path:url(#clip-path-2);}.cls-4{clip-path:url(#clip-path-3);}</style><clipPath id="clip-path"><rect class="cls-1" x="3.51" y="33.95" width="189.16" height="79.6"/></clipPath><clipPath id="clip-path-2"><rect class="cls-1" x="3.51" y="151.76" width="189.16" height="79.6"/></clipPath><clipPath id="clip-path-3"><rect class="cls-1" x="-2263.25" y="-655.94" width="768" height="1314.78"/></clipPath></defs><g class="cls-2"><circle cx="20.28" cy="120.25" r="16.49"/><circle cx="20.35" cy="117.1" r="16.49"/><circle cx="20.56" cy="114.04" r="16.49"/><circle cx="20.9" cy="111.05" r="16.49"/><circle cx="21.38" cy="108.14" r="16.49"/><circle cx="21.99" cy="105.31" r="16.49"/><circle cx="22.72" cy="102.56" r="16.49"/><circle cx="23.57" cy="99.89" r="16.49"/><circle cx="24.54" cy="97.3" r="16.49"/><circle cx="25.63" cy="94.78" r="16.49"/><circle cx="26.82" cy="92.34" r="16.49"/><circle cx="28.13" cy="89.99" r="16.49"/><circle cx="29.54" cy="87.71" r="16.49"/><circle cx="31.04" cy="85.51" r="16.49"/><circle cx="32.65" cy="83.38" r="16.49"/><circle cx="34.35" cy="81.34" r="16.49"/><circle cx="36.14" cy="79.38" r="16.49"/><circle cx="38.01" cy="77.49" r="16.49"/><circle cx="39.97" cy="75.68" r="16.49"/><circle cx="42" cy="73.95" r="16.49"/><circle cx="44.12" cy="72.3" r="16.49"/><circle cx="46.3" cy="70.73" r="16.49"/><circle cx="48.56" cy="69.24" r="16.49"/><circle cx="50.87" cy="67.82" r="16.49"/><circle cx="53.25" cy="66.49" r="16.49"/><circle cx="55.69" cy="65.23" r="16.49"/><circle cx="58.19" cy="64.05" r="16.49"/><circle cx="60.73" cy="62.95" r="16.49"/><circle cx="63.32" cy="61.93" r="16.49"/><circle cx="65.96" cy="60.98" r="16.49"/><circle cx="68.63" cy="60.12" r="16.49"/><circle cx="71.35" cy="59.33" r="16.49"/><circle cx="74.09" cy="58.63" r="16.49"/><circle cx="76.87" cy="58" r="16.49"/><circle cx="79.67" cy="57.45" r="16.49"/><circle cx="82.5" cy="56.98" r="16.49"/><circle cx="85.34" cy="56.58" r="16.49"/><circle cx="88.2" cy="56.27" r="16.49"/><circle cx="91.08" cy="56.03" r="16.49"/><circle cx="93.96" cy="55.88" r="16.49"/><circle cx="96.85" cy="55.8" r="16.49"/><circle cx="99.74" cy="55.8" r="16.49"/><circle cx="102.62" cy="55.88" r="16.49"/><circle cx="105.51" cy="56.03" r="16.49"/><circle cx="108.38" cy="56.27" r="16.49"/><circle cx="111.24" cy="56.58" r="16.49"/><circle cx="114.09" cy="56.98" r="16.49"/><circle cx="116.91" cy="57.45" r="16.49"/><circle cx="119.71" cy="58" r="16.49"/><circle cx="122.49" cy="58.63" r="16.49"/><circle cx="125.24" cy="59.33" r="16.49"/><circle cx="127.95" cy="60.12" r="16.49"/><circle cx="130.63" cy="60.98" r="16.49"/><circle cx="133.26" cy="61.93" r="16.49"/><circle cx="135.85" cy="62.95" r="16.49"/><circle cx="138.4" cy="64.05" r="16.49"/><circle cx="140.89" cy="65.23" r="16.49"/><circle cx="143.33" cy="66.49" r="16.49"/><circle cx="145.71" cy="67.82" r="16.49"/><circle cx="148.03" cy="69.24" r="16.49"/><circle cx="150.28" cy="70.73" r="16.49"/><circle cx="152.47" cy="72.3" r="16.49"/><circle cx="154.58" cy="73.95" r="16.49"/><circle cx="156.62" cy="75.68" r="16.49"/><circle cx="158.57" cy="77.49" r="16.49"/><circle cx="160.45" cy="79.38" r="16.49"/><circle cx="162.24" cy="81.34" r="16.49"/><circle cx="163.93" cy="83.38" r="16.49"/><circle cx="165.54" cy="85.51" r="16.49"/><circle cx="167.05" cy="87.71" r="16.49"/><circle cx="168.46" cy="89.99" r="16.49"/><circle cx="169.76" cy="92.34" r="16.49"/><circle cx="170.96" cy="94.78" r="16.49"/><circle cx="172.04" cy="97.3" r="16.49"/><circle cx="173.01" cy="99.89" r="16.49"/><circle cx="173.87" cy="102.56" r="16.49"/><circle cx="174.6" cy="105.31" r="16.49"/><circle cx="175.2" cy="108.14" r="16.49"/><circle cx="175.68" cy="111.05" r="16.49"/><circle cx="176.03" cy="114.04" r="16.49"/><circle cx="176.24" cy="117.1" r="16.49"/><circle cx="176.31" cy="120.25" r="16.49"/></g><g class="cls-3"><circle cx="20.28" cy="145.07" r="16.49"/><circle cx="20.35" cy="148.21" r="16.49"/><circle cx="20.56" cy="151.28" r="16.49"/><circle cx="20.9" cy="154.26" r="16.49"/><circle cx="21.38" cy="157.17" r="16.49"/><circle cx="21.99" cy="160" r="16.49"/><circle cx="22.72" cy="162.75" r="16.49"/><circle cx="23.57" cy="165.42" r="16.49"/><circle cx="24.54" cy="168.02" r="16.49"/><circle cx="25.63" cy="170.53" r="16.49"/><circle cx="26.82" cy="172.97" r="16.49"/><circle cx="28.13" cy="175.33" r="16.49"/><circle cx="29.54" cy="177.61" r="16.49"/><circle cx="31.04" cy="179.81" r="16.49"/><circle cx="32.65" cy="181.93" r="16.49"/><circle cx="34.35" cy="183.97" r="16.49"/><circle cx="36.14" cy="185.94" r="16.49"/><circle cx="38.01" cy="187.82" r="16.49"/><circle cx="39.97" cy="189.63" r="16.49"/><circle cx="42" cy="191.36" r="16.49"/><circle cx="44.12" cy="193.01" r="16.49"/><circle cx="46.3" cy="194.58" r="16.49"/><circle cx="48.56" cy="196.08" r="16.49"/><circle cx="50.87" cy="197.49" r="16.49"/><circle cx="53.25" cy="198.83" r="16.49"/><circle cx="55.69" cy="200.08" r="16.49"/><circle cx="58.19" cy="201.26" r="16.49"/><circle cx="60.73" cy="202.36" r="16.49"/><circle cx="63.32" cy="203.39" r="16.49"/><circle cx="65.96" cy="204.33" r="16.49"/><circle cx="68.63" cy="205.19" r="16.49"/><circle cx="71.35" cy="205.98" r="16.49"/><circle cx="74.09" cy="206.69" r="16.49"/><circle cx="76.87" cy="207.32" r="16.49"/><circle cx="79.67" cy="207.87" r="16.49"/><circle cx="82.5" cy="208.34" r="16.49"/><circle cx="85.34" cy="208.73" r="16.49"/><circle cx="88.2" cy="209.04" r="16.49"/><circle cx="91.08" cy="209.28" r="16.49"/><circle cx="93.96" cy="209.44" r="16.49"/><circle cx="96.85" cy="209.52" r="16.49"/><circle cx="99.74" cy="209.52" r="16.49"/><circle cx="102.62" cy="209.44" r="16.49"/><circle cx="105.51" cy="209.28" r="16.49"/><circle cx="108.38" cy="209.04" r="16.49"/><circle cx="111.24" cy="208.73" r="16.49"/><circle cx="114.09" cy="208.34" r="16.49"/><circle cx="116.91" cy="207.87" r="16.49"/><circle cx="119.71" cy="207.32" r="16.49"/><circle cx="122.49" cy="206.69" r="16.49"/><circle cx="125.24" cy="205.98" r="16.49"/><circle cx="127.95" cy="205.19" r="16.49"/><circle cx="130.63" cy="204.33" r="16.49"/><circle cx="133.26" cy="203.39" r="16.49"/><circle cx="135.85" cy="202.36" r="16.49"/><circle cx="138.4" cy="201.26" r="16.49"/><circle cx="140.89" cy="200.08" r="16.49"/><circle cx="143.33" cy="198.83" r="16.49"/><circle cx="145.71" cy="197.49" r="16.49"/><circle cx="148.03" cy="196.08" r="16.49"/><circle cx="150.28" cy="194.58" r="16.49"/><circle cx="152.47" cy="193.01" r="16.49"/><circle cx="154.58" cy="191.36" r="16.49"/><circle cx="156.62" cy="189.63" r="16.49"/><circle cx="158.57" cy="187.82" r="16.49"/><circle cx="160.45" cy="185.94" r="16.49"/><circle cx="162.24" cy="183.97" r="16.49"/><circle cx="163.93" cy="181.93" r="16.49"/><circle cx="165.54" cy="179.81" r="16.49"/><circle cx="167.05" cy="177.61" r="16.49"/><circle cx="168.46" cy="175.33" r="16.49"/><circle cx="169.76" cy="172.97" r="16.49"/><circle cx="170.96" cy="170.53" r="16.49"/><circle cx="172.04" cy="168.02" r="16.49"/><circle cx="173.01" cy="165.42" r="16.49"/><circle cx="173.87" cy="162.75" r="16.49"/><circle cx="174.6" cy="160" r="16.49"/><circle cx="175.2" cy="157.17" r="16.49"/><circle cx="175.68" cy="154.26" r="16.49"/><circle cx="176.03" cy="151.28" r="16.49"/><circle cx="176.24" cy="148.21" r="16.49"/><circle cx="176.31" cy="145.07" r="16.49"/></g><g class="cls-4"><image width="3840" height="1080" transform="translate(-8136.29 -1447.76) scale(2.17 2.12)" xlink:href="../../../../YandexDisk/%D0%A1%D0%BA%D1%80%D0%B8%D0%BD%D1%88%D0%BE%D1%82%D1%8B/2021-11-16_18-00-37.png"/></g></svg>