<svg id="Layer_1" data-name="Layer 1" xmlns="http://www.w3.org/2000/svg" xmlns:xlink="http://www.w3.org/1999/xlink" viewBox="0 0 196 262"><defs><style>.cls-1{fill:none;}.cls-2{clip-path:url(#clip-path);}</style><clipPath id="clip-path"><rect class="cls-1" x="3.52" y="13.01" width="189.19" height="104.58"/></clipPath></defs><g class="cls-2"><circle cx="20.36" cy="123.24" r="16.49"/><circle cx="20.43" cy="118.67" r="16.49"/><circle cx="20.64" cy="114.21" r="16.49"/><circle cx="20.98" cy="109.87" r="16.49"/><circle cx="21.46" cy="105.65" r="16.49"/><circle cx="22.07" cy="101.53" r="16.49"/><circle cx="22.8" cy="97.53" r="16.49"/><circle cx="23.65" cy="93.65" r="16.49"/><circle cx="24.62" cy="89.88" r="16.49"/><circle cx="25.71" cy="86.23" r="16.49"/><circle cx="26.91" cy="82.69" r="16.49"/><circle cx="28.21" cy="79.26" r="16.49"/><circle cx="29.62" cy="75.95" r="16.49"/><circle cx="31.13" cy="72.75" r="16.49"/><circle cx="32.73" cy="69.66" r="16.49"/><circle cx="34.43" cy="66.69" r="16.49"/><circle cx="36.22" cy="63.84" r="16.49"/><circle cx="38.09" cy="61.1" r="16.49"/><circle cx="40.05" cy="58.47" r="16.49"/><circle cx="42.09" cy="55.96" r="16.49"/><circle cx="44.2" cy="53.56" r="16.49"/><circle cx="46.38" cy="51.27" r="16.49"/><circle cx="48.64" cy="49.1" r="16.49"/><circle cx="50.95" cy="47.05" r="16.49"/><circle cx="53.33" cy="45.11" r="16.49"/><circle cx="55.77" cy="43.28" r="16.49"/><circle cx="58.27" cy="41.56" r="16.49"/><circle cx="60.81" cy="39.96" r="16.49"/><circle cx="63.4" cy="38.48" r="16.49"/><circle cx="66.04" cy="37.11" r="16.49"/><circle cx="68.71" cy="35.85" r="16.49"/><circle cx="71.43" cy="34.71" r="16.49"/><circle cx="74.17" cy="33.68" r="16.49"/><circle cx="76.95" cy="32.77" r="16.49"/><circle cx="79.75" cy="31.97" r="16.49"/><circle cx="82.58" cy="31.28" r="16.49"/><circle cx="85.42" cy="30.71" r="16.49"/><circle cx="88.28" cy="30.26" r="16.49"/><circle cx="91.16" cy="29.91" r="16.49"/><circle cx="94.04" cy="29.68" r="16.49"/><circle cx="96.93" cy="29.57" r="16.49"/><circle cx="99.82" cy="29.57" r="16.49"/><circle cx="102.7" cy="29.68" r="16.49"/><circle cx="105.59" cy="29.91" r="16.49"/><circle cx="108.46" cy="30.26" r="16.49"/><circle cx="111.32" cy="30.71" r="16.49"/><circle cx="114.17" cy="31.28" r="16.49"/><circle cx="116.99" cy="31.97" r="16.49"/><circle cx="119.8" cy="32.77" r="16.49"/><circle cx="122.57" cy="33.68" r="16.49"/><circle cx="125.32" cy="34.71" r="16.49"/><circle cx="128.03" cy="35.85" r="16.49"/><circle cx="130.71" cy="37.11" r="16.49"/><circle cx="133.34" cy="38.48" r="16.49"/><circle cx="135.94" cy="39.96" r="16.49"/><circle cx="138.48" cy="41.56" r="16.49"/><circle cx="140.97" cy="43.28" r="16.49"/><circle cx="143.41" cy="45.11" r="16.49"/><circle cx="145.79" cy="47.05" r="16.49"/><circle cx="148.11" cy="49.1" r="16.49"/><circle cx="150.36" cy="51.27" r="16.49"/><circle cx="152.55" cy="53.56" r="16.49"/><circle cx="154.66" cy="55.96" r="16.49"/><circle cx="156.7" cy="58.47" r="16.49"/><circle cx="158.65" cy="61.1" r="16.49"/><circle cx="160.53" cy="63.84" r="16.49"/><circle cx="162.32" cy="66.69" r="16.49"/><circle cx="164.02" cy="69.66" r="16.49"/><circle cx="165.62" cy="72.75" r="16.49"/><circle cx="167.13" cy="75.95" r="16.49"/><circle cx="168.54" cy="79.26" r="16.49"/><circle cx="169.84" cy="82.69" r="16.49"/><circle cx="171.04" cy="86.23" r="16.49"/><circle cx="172.12" cy="89.88" r="16.49"/><circle cx="173.09" cy="93.65" r="16.49"/><circle cx="173.95" cy="97.53" r="16.49"/><circle cx="174.68" cy="101.53" r="16.49"/><circle cx="175.28" cy="105.65" r="16.49"/><circle cx="175.76" cy="109.87" r="16.49"/><circle cx="176.11" cy="114.21" r="16.49"/><circle cx="176.32" cy="118.67" r="16.49"/><circle cx="176.39" cy="123.24" r="16.49"/></g></svg>