<svg id="Layer_1" data-name="Layer 1" xmlns="http://www.w3.org/2000/svg" xmlns:xlink="http://www.w3.org/1999/xlink" viewBox="0 0 196 200"><defs><style>.cls-1{fill:none;}.cls-2{clip-path:url(#clip-path);}.cls-3{clip-path:url(#clip-path-2);}</style><clipPath id="clip-path"><rect class="cls-1" x="4.31" y="29.71" width="188.35" height="53.06"/></clipPath><clipPath id="clip-path-2"><rect class="cls-1" x="4.31" y="120.89" width="188.35" height="53.06"/></clipPath></defs><g class="cls-2"><circle cx="20.62" cy="89.47" r="16.49"/><circle cx="20.69" cy="87.37" r="16.49"/><circle cx="20.9" cy="85.33" r="16.49"/><circle cx="21.24" cy="83.33" r="16.49"/><circle cx="21.72" cy="81.39" r="16.49"/><circle cx="22.33" cy="79.5" r="16.49"/><circle cx="23.06" cy="77.67" r="16.49"/><circle cx="23.91" cy="75.88" r="16.49"/><circle cx="24.88" cy="74.15" r="16.49"/><circle cx="25.97" cy="72.47" r="16.49"/><circle cx="27.17" cy="70.85" r="16.49"/><circle cx="28.47" cy="69.27" r="16.49"/><circle cx="29.88" cy="67.75" r="16.49"/><circle cx="31.39" cy="66.28" r="16.49"/><circle cx="32.99" cy="64.86" r="16.49"/><circle cx="34.69" cy="63.5" r="16.49"/><circle cx="36.48" cy="62.19" r="16.49"/><circle cx="38.35" cy="60.93" r="16.49"/><circle cx="40.31" cy="59.72" r="16.49"/><circle cx="42.35" cy="58.57" r="16.49"/><circle cx="44.46" cy="57.47" r="16.49"/><circle cx="46.64" cy="56.42" r="16.49"/><circle cx="48.9" cy="55.42" r="16.49"/><circle cx="51.21" cy="54.47" r="16.49"/><circle cx="53.6" cy="53.58" r="16.49"/><circle cx="56.03" cy="52.74" r="16.49"/><circle cx="58.53" cy="51.96" r="16.49"/><circle cx="61.07" cy="51.22" r="16.49"/><circle cx="63.66" cy="50.54" r="16.49"/><circle cx="66.3" cy="49.91" r="16.49"/><circle cx="68.97" cy="49.33" r="16.49"/><circle cx="71.69" cy="48.81" r="16.49"/><circle cx="74.43" cy="48.34" r="16.49"/><circle cx="77.21" cy="47.92" r="16.49"/><circle cx="80.01" cy="47.55" r="16.49"/><circle cx="82.84" cy="47.23" r="16.49"/><circle cx="85.68" cy="46.97" r="16.49"/><circle cx="88.55" cy="46.76" r="16.49"/><circle cx="91.42" cy="46.6" r="16.49"/><circle cx="94.3" cy="46.5" r="16.49"/><circle cx="97.19" cy="46.45" r="16.49"/><circle cx="100.08" cy="46.45" r="16.49"/><circle cx="102.97" cy="46.5" r="16.49"/><circle cx="105.85" cy="46.6" r="16.49"/><circle cx="108.72" cy="46.76" r="16.49"/><circle cx="111.58" cy="46.97" r="16.49"/><circle cx="114.43" cy="47.23" r="16.49"/><circle cx="117.25" cy="47.55" r="16.49"/><circle cx="120.06" cy="47.92" r="16.49"/><circle cx="122.83" cy="48.34" r="16.49"/><circle cx="125.58" cy="48.81" r="16.49"/><circle cx="128.29" cy="49.33" r="16.49"/><circle cx="130.97" cy="49.91" r="16.49"/><circle cx="133.6" cy="50.54" r="16.49"/><circle cx="136.2" cy="51.22" r="16.49"/><circle cx="138.74" cy="51.96" r="16.49"/><circle cx="141.23" cy="52.74" r="16.49"/><circle cx="143.67" cy="53.58" r="16.49"/><circle cx="146.05" cy="54.47" r="16.49"/><circle cx="148.37" cy="55.42" r="16.49"/><circle cx="150.62" cy="56.42" r="16.49"/><circle cx="152.81" cy="57.47" r="16.49"/><circle cx="154.92" cy="58.57" r="16.49"/><circle cx="156.96" cy="59.72" r="16.49"/><circle cx="158.91" cy="60.93" r="16.49"/><circle cx="160.79" cy="62.19" r="16.49"/><circle cx="162.58" cy="63.5" r="16.49"/><circle cx="164.28" cy="64.86" r="16.49"/><circle cx="165.88" cy="66.28" r="16.49"/><circle cx="167.39" cy="67.75" r="16.49"/><circle cx="168.8" cy="69.27" r="16.49"/><circle cx="170.1" cy="70.85" r="16.49"/><circle cx="171.3" cy="72.47" r="16.49"/><circle cx="172.38" cy="74.15" r="16.49"/><circle cx="173.35" cy="75.88" r="16.49"/><circle cx="174.21" cy="77.67" r="16.49"/><circle cx="174.94" cy="79.5" r="16.49"/><circle cx="175.54" cy="81.39" r="16.49"/><circle cx="176.02" cy="83.33" r="16.49"/><circle cx="176.37" cy="85.33" r="16.49"/><circle cx="176.58" cy="87.37" r="16.49"/><circle cx="176.65" cy="89.47" r="16.49"/></g><g class="cls-3"><circle cx="20.62" cy="114.19" r="16.49"/><circle cx="20.69" cy="116.29" r="16.49"/><circle cx="20.9" cy="118.34" r="16.49"/><circle cx="21.24" cy="120.33" r="16.49"/><circle cx="21.72" cy="122.28" r="16.49"/><circle cx="22.33" cy="124.16" r="16.49"/><circle cx="23.06" cy="126" r="16.49"/><circle cx="23.91" cy="127.79" r="16.49"/><circle cx="24.88" cy="129.52" r="16.49"/><circle cx="25.97" cy="131.2" r="16.49"/><circle cx="27.17" cy="132.82" r="16.49"/><circle cx="28.47" cy="134.4" r="16.49"/><circle cx="29.88" cy="135.92" r="16.49"/><circle cx="31.39" cy="137.39" r="16.49"/><circle cx="32.99" cy="138.8" r="16.49"/><circle cx="34.69" cy="140.17" r="16.49"/><circle cx="36.48" cy="141.48" r="16.49"/><circle cx="38.35" cy="142.74" r="16.49"/><circle cx="40.31" cy="143.95" r="16.49"/><circle cx="42.35" cy="145.1" r="16.49"/><circle cx="44.46" cy="146.2" r="16.49"/><circle cx="46.64" cy="147.25" r="16.49"/><circle cx="48.9" cy="148.25" r="16.49"/><circle cx="51.21" cy="149.19" r="16.49"/><circle cx="53.6" cy="150.09" r="16.49"/><circle cx="56.03" cy="150.93" r="16.49"/><circle cx="58.53" cy="151.71" r="16.49"/><circle cx="61.07" cy="152.45" r="16.49"/><circle cx="63.66" cy="153.13" r="16.49"/><circle cx="66.3" cy="153.76" r="16.49"/><circle cx="68.97" cy="154.34" r="16.49"/><circle cx="71.69" cy="154.86" r="16.49"/><circle cx="74.43" cy="155.33" r="16.49"/><circle cx="77.21" cy="155.75" r="16.49"/><circle cx="80.01" cy="156.12" r="16.49"/><circle cx="82.84" cy="156.43" r="16.49"/><circle cx="85.68" cy="156.7" r="16.49"/><circle cx="88.55" cy="156.91" r="16.49"/><circle cx="91.42" cy="157.06" r="16.49"/><circle cx="94.3" cy="157.17" r="16.49"/><circle cx="97.19" cy="157.22" r="16.49"/><circle cx="100.08" cy="157.22" r="16.49"/><circle cx="102.97" cy="157.17" r="16.49"/><circle cx="105.85" cy="157.06" r="16.49"/><circle cx="108.72" cy="156.91" r="16.49"/><circle cx="111.58" cy="156.7" r="16.49"/><circle cx="114.43" cy="156.43" r="16.49"/><circle cx="117.25" cy="156.12" r="16.49"/><circle cx="120.06" cy="155.75" r="16.49"/><circle cx="122.83" cy="155.33" r="16.49"/><circle cx="125.58" cy="154.86" r="16.49"/><circle cx="128.29" cy="154.34" r="16.49"/><circle cx="130.97" cy="153.76" r="16.49"/><circle cx="133.6" cy="153.13" r="16.49"/><circle cx="136.2" cy="152.45" r="16.49"/><circle cx="138.74" cy="151.71" r="16.49"/><circle cx="141.23" cy="150.93" r="16.49"/><circle cx="143.67" cy="150.09" r="16.49"/><circle cx="146.05" cy="149.19" r="16.49"/><circle cx="148.37" cy="148.25" r="16.49"/><circle cx="150.62" cy="147.25" r="16.49"/><circle cx="152.81" cy="146.2" r="16.49"/><circle cx="154.92" cy="145.1" r="16.49"/><circle cx="156.96" cy="143.95" r="16.49"/><circle cx="158.91" cy="142.74" r="16.49"/><circle cx="160.79" cy="141.48" r="16.49"/><circle cx="162.58" cy="140.17" r="16.49"/><circle cx="164.28" cy="138.8" r="16.49"/><circle cx="165.88" cy="137.39" r="16.49"/><circle cx="167.39" cy="135.92" r="16.49"/><circle cx="168.8" cy="134.4" r="16.49"/><circle cx="170.1" cy="132.82" r="16.49"/><circle cx="171.3" cy="131.2" r="16.49"/><circle cx="172.38" cy="129.52" r="16.49"/><circle cx="173.35" cy="127.79" r="16.49"/><circle cx="174.21" cy="126" r="16.49"/><circle cx="174.94" cy="124.16" r="16.49"/><circle cx="175.54" cy="122.28" r="16.49"/><circle cx="176.02" cy="120.33" r="16.49"/><circle cx="176.37" cy="118.34" r="16.49"/><circle cx="176.58" cy="116.29" r="16.49"/><circle cx="176.65" cy="114.19" r="16.49"/></g></svg>