<svg width="235" height="235" viewBox="0 0 235 235" fill="none" xmlns="http://www.w3.org/2000/svg">
<g filter="url(#filter0_d_163_369)">
<path d="M119.589 2.38861H115.4V79.4459H119.589V2.38861Z" fill="black"/>
<path d="M121.977 0H113V81.8344H121.977V0Z" fill="black"/>
<path d="M200.33 37.5468L197.367 34.5863L142.903 89.0966L145.866 92.0572L200.33 37.5468Z" fill="black"/>
<path d="M197.351 31.2084L139.51 89.0981L145.861 95.4433L203.701 37.5536L197.351 31.2084Z" fill="black"/>
<path d="M232.591 119.489L232.587 115.3L155.53 115.359L155.533 119.548L232.591 119.489Z" fill="black"/>
<path d="M234.967 112.944H153.132V121.921H234.967V112.944Z" fill="black"/>
<path d="M197.49 200.251L200.449 197.286L145.9 142.86L142.941 145.825L197.49 200.251Z" fill="black"/>
<path d="M145.901 139.484L139.56 145.839L197.491 203.639L203.831 197.284L145.901 139.484Z" fill="black"/>
<path d="M115.573 232.576L119.762 232.57L119.644 155.512L115.455 155.519L115.573 232.576Z" fill="black"/>
<path d="M122.041 153.127L113.064 153.141L113.19 234.975L122.167 234.961L122.041 153.127Z" fill="black"/>
<path d="M34.7819 197.537L37.7495 200.493L92.1366 145.898L89.1689 142.942L34.7819 197.537Z" fill="black"/>
<path d="M89.1445 139.582L31.3857 197.554L37.7453 203.89L95.504 145.919L89.1445 139.582Z" fill="black"/>
<path d="M2.39859 115.66L2.4082 119.849L79.4655 119.672L79.4559 115.483L2.39859 115.66Z" fill="black"/>
<path d="M81.8344 113.081L0 113.267L0.0203128 122.244L81.8548 122.059L81.8344 113.081Z" fill="black"/>
<path d="M37.3625 34.8355L34.4087 37.8052L89.0423 92.1461L91.9962 89.1763L37.3625 34.8355Z" fill="black"/>
<path d="M37.3616 31.4486L31.0308 37.8135L89.0514 95.5231L95.3822 89.1582L37.3616 31.4486Z" fill="black"/>
<path d="M117.246 136.125C127.219 136.125 135.305 128.04 135.305 118.067C135.305 108.093 127.219 100.008 117.246 100.008C107.273 100.008 99.1875 108.093 99.1875 118.067C99.1875 128.04 107.273 136.125 117.246 136.125Z" fill="black"/>
</g>
<defs>
<filter id="filter0_d_163_369" x="-4" y="0" width="242.967" height="242.975" filterUnits="userSpaceOnUse" color-interpolation-filters="sRGB">
<feFlood flood-opacity="0" result="BackgroundImageFix"/>
<feColorMatrix in="SourceAlpha" type="matrix" values="0 0 0 0 0 0 0 0 0 0 0 0 0 0 0 0 0 0 127 0" result="hardAlpha"/>
<feOffset dy="4"/>
<feGaussianBlur stdDeviation="2"/>
<feComposite in2="hardAlpha" operator="out"/>
<feColorMatrix type="matrix" values="0 0 0 0 0 0 0 0 0 0 0 0 0 0 0 0 0 0 0.25 0"/>
<feBlend mode="normal" in2="BackgroundImageFix" result="effect1_dropShadow_163_369"/>
<feBlend mode="normal" in="SourceGraphic" in2="effect1_dropShadow_163_369" result="shape"/>
</filter>
</defs>
</svg>
