<svg width="235" height="235" viewBox="0 0 235 235" fill="none" xmlns="http://www.w3.org/2000/svg">
<path d="M54.7642 99.2694H17.4121C22.0093 21.6448 216.815 22.2279 221.412 99.2694H184.06C184.06 99.2694 173.716 76.5069 118.55 76.5069C63.3839 76.5069 54.7642 99.2694 54.7642 99.2694Z" fill="black"/>
<path d="M54.7642 142.269H17.4121C22.0093 217.217 216.815 216.654 221.412 142.269H184.06C184.06 142.269 173.716 164.247 118.55 164.247C63.3839 164.247 54.7642 142.269 54.7642 142.269Z" fill="black"/>
<path d="M119.589 2.38861H115.4V79.4459H119.589V2.38861Z" fill="#FF6100"/>
<path d="M121.977 0H113V81.8344H121.977V0Z" fill="#FF6100"/>
<path d="M200.33 37.5469L197.367 34.5864L142.903 89.0967L145.866 92.0572L200.33 37.5469Z" fill="#FF6100"/>
<path d="M197.351 31.2083L139.51 89.098L145.861 95.4432L203.701 37.5535L197.351 31.2083Z" fill="#FF6100"/>
<path d="M232.591 119.489L232.587 115.3L155.53 115.359L155.533 119.548L232.591 119.489Z" fill="#FF6100"/>
<path d="M234.967 112.944H153.132V121.921H234.967V112.944Z" fill="#FF6100"/>
<path d="M197.49 200.251L200.449 197.286L145.9 142.86L142.941 145.825L197.49 200.251Z" fill="#FF6100"/>
<path d="M145.901 139.484L139.56 145.839L197.491 203.639L203.831 197.284L145.901 139.484Z" fill="#FF6100"/>
<path d="M115.573 232.576L119.762 232.57L119.644 155.512L115.455 155.519L115.573 232.576Z" fill="#FF6100"/>
<path d="M122.041 153.127L113.064 153.141L113.19 234.975L122.167 234.961L122.041 153.127Z" fill="#FF6100"/>
<path d="M34.7819 197.537L37.7495 200.493L92.1366 145.898L89.1689 142.942L34.7819 197.537Z" fill="#FF6100"/>
<path d="M89.1445 139.582L31.3857 197.554L37.7453 203.89L95.504 145.919L89.1445 139.582Z" fill="#FF6100"/>
<path d="M2.39859 115.66L2.4082 119.849L79.4655 119.672L79.4559 115.483L2.39859 115.66Z" fill="#FF6100"/>
<path d="M81.8344 113.081L0 113.267L0.0203128 122.244L81.8548 122.059L81.8344 113.081Z" fill="#FF6100"/>
<path d="M37.3625 34.8355L34.4087 37.8052L89.0423 92.1461L91.9962 89.1763L37.3625 34.8355Z" fill="#FF6100"/>
<path d="M37.3616 31.4486L31.0308 37.8135L89.0514 95.5231L95.3822 89.1582L37.3616 31.4486Z" fill="#FF6100"/>
<path d="M117.246 136.125C127.219 136.125 135.305 128.04 135.305 118.067C135.305 108.093 127.219 100.008 117.246 100.008C107.273 100.008 99.1875 108.093 99.1875 118.067C99.1875 128.04 107.273 136.125 117.246 136.125Z" fill="#FF6100"/>
</svg>
