<svg id="Layer_1" data-name="Layer 1" xmlns="http://www.w3.org/2000/svg" xmlns:xlink="http://www.w3.org/1999/xlink" viewBox="0 0 299.6 296.52"><defs><style>.cls-1{fill:none;}.cls-2{clip-path:url(#clip-path);}</style><clipPath id="clip-path"><rect class="cls-1" x="-1404.95" y="-346.03" width="768" height="1314.78"/></clipPath></defs><rect x="147.17" y="8.98" width="5.12" height="94.01"/><rect x="144.44" y="6.24" width="10.58" height="99.47"/><rect x="213.19" y="36.31" width="5.12" height="94.01" transform="translate(122.02 -128.12) rotate(44.98)"/><rect x="166.01" y="78.02" width="99.47" height="10.58" transform="translate(4.32 177.04) rotate(-45.02)"/><rect x="240.57" y="102.31" width="5.12" height="94.01" transform="translate(392.26 -93.93) rotate(89.96)"/><rect x="193.39" y="144.03" width="99.47" height="10.58"/><rect x="213.29" y="168.35" width="5.12" height="94.01" transform="translate(520.76 214.66) rotate(134.93)"/><rect x="210.56" y="165.62" width="10.58" height="99.47" transform="translate(-89.06 216.06) rotate(-45.07)"/><rect x="147.31" y="195.79" width="5.12" height="94.01" transform="translate(300.11 485.36) rotate(179.91)"/><rect x="144.58" y="193.06" width="10.58" height="99.47" transform="translate(-0.37 0.23) rotate(-0.09)"/><rect x="81.25" y="168.56" width="5.12" height="94.01" transform="translate(-8.96 427.42) rotate(-135.11)"/><rect x="34.07" y="210.27" width="99.47" height="10.58" transform="translate(-128.06 122.8) rotate(-45.11)"/><rect x="53.76" y="102.6" width="5.12" height="94.01" transform="translate(-93.15 206.26) rotate(-90.13)"/><rect x="6.58" y="144.31" width="99.47" height="10.58" transform="translate(-0.35 0.13) rotate(-0.13)"/><rect x="80.94" y="36.51" width="5.12" height="94.01" transform="translate(-34.6 83.82) rotate(-45.15)"/><rect x="78.21" y="33.78" width="10.58" height="99.47" transform="translate(-34.6 83.82) rotate(-45.15)"/><circle cx="149.83" cy="151.3" r="22.03"/><g class="cls-2"><image width="3840" height="1080" transform="translate(-7277.98 -1137.85) scale(2.17 2.12)" xlink:href="../../../../YandexDisk/%D0%A1%D0%BA%D1%80%D0%B8%D0%BD%D1%88%D0%BE%D1%82%D1%8B/2021-11-16_18-00-37.png"/></g></svg>