<svg id="Layer_1" data-name="Layer 1" xmlns="http://www.w3.org/2000/svg" xmlns:xlink="http://www.w3.org/1999/xlink" viewBox="0 0 209.38 262"><defs><style>.cls-1{fill:none;}.cls-2{clip-path:url(#clip-path);}.cls-3{fill:#ffd100;}</style><clipPath id="clip-path"><rect class="cls-1" x="-1761.69" y="-180.99" width="768" height="1314.78"/></clipPath></defs><g class="cls-2"><image width="3840" height="1080" transform="translate(-7634.73 -972.82) scale(2.17 2.12)" xlink:href="../../../../YandexDisk/%D0%A1%D0%BA%D1%80%D0%B8%D0%BD%D1%88%D0%BE%D1%82%D1%8B/2021-11-16_18-00-37.png"/></g><rect class="cls-3" x="102.88" y="30.98" width="3.63" height="66.78"/><rect class="cls-3" x="100.8" y="28.91" width="7.78" height="70.92"/><rect class="cls-3" x="118.2" y="81.97" width="66.78" height="3.63" transform="translate(-14.83 131.8) rotate(-45.02)"/><rect class="cls-3" x="116.13" y="79.9" width="70.92" height="7.78" transform="translate(-14.83 131.79) rotate(-45.02)"/><rect class="cls-3" x="137.66" y="128.86" width="66.78" height="3.63"/><rect class="cls-3" x="135.58" y="126.79" width="70.92" height="7.78"/><rect class="cls-3" x="149.85" y="144.2" width="3.63" height="66.78" transform="translate(-81.17 159.53) rotate(-45.07)"/><rect class="cls-3" x="147.78" y="142.13" width="7.78" height="70.92" transform="translate(-81.17 159.52) rotate(-45.07)"/><rect class="cls-3" x="102.98" y="163.69" width="3.63" height="66.78" transform="translate(-0.3 0.16) rotate(-0.09)"/><rect class="cls-3" x="100.91" y="161.62" width="7.78" height="70.92" transform="translate(-0.3 0.16) rotate(-0.09)"/><rect class="cls-3" x="24.47" y="175.92" width="66.78" height="3.63" transform="translate(-108.89 93.29) rotate(-45.11)"/><rect class="cls-3" x="22.4" y="173.85" width="70.92" height="7.78" transform="translate(-108.89 93.3) rotate(-45.11)"/><rect class="cls-3" x="4.95" y="129.06" width="66.78" height="3.63" transform="translate(-0.3 0.09) rotate(-0.13)"/><rect class="cls-3" x="2.88" y="126.99" width="70.92" height="7.78" transform="translate(-0.3 0.09) rotate(-0.13)"/><rect class="cls-3" x="55.83" y="50.54" width="3.63" height="66.78" transform="translate(-42.51 65.62) rotate(-45.15)"/><rect class="cls-3" x="53.76" y="48.47" width="7.78" height="70.92" transform="translate(-42.51 65.62) rotate(-45.15)"/><circle class="cls-3" cx="104.79" cy="130.73" r="15.65"/></svg>